<mxfile host="app.diagrams.net" agent="Mozilla/5.0 (Windows NT 10.0; Win64; x64) AppleWebKit/537.36 (KHTML, like Gecko) Chrome/137.0.0.0 Safari/537.36" version="27.1.6">
  <diagram name="Page-1" id="bHbRlKhIlsj43oE-1NWw">
    <mxGraphModel dx="2977" dy="1506" grid="1" gridSize="10" guides="1" tooltips="1" connect="1" arrows="1" fold="1" page="1" pageScale="1" pageWidth="850" pageHeight="1100" math="0" shadow="0">
      <root>
        <mxCell id="0" />
        <mxCell id="1" parent="0" />
        <mxCell id="c_TrtUdeXuc_WIpKE6Xa-2" value="User Action / External System" style="whiteSpace=wrap;strokeWidth=2;" vertex="1" parent="1">
          <mxGeometry x="1356" y="160" width="260" height="78" as="geometry" />
        </mxCell>
        <mxCell id="c_TrtUdeXuc_WIpKE6Xa-3" value="Trigger Service" style="rounded=1;arcSize=20;strokeWidth=2" vertex="1" parent="1">
          <mxGeometry x="1418" y="310" width="136" height="54" as="geometry" />
        </mxCell>
        <mxCell id="c_TrtUdeXuc_WIpKE6Xa-4" value="Is Workflow Active?" style="rhombus;strokeWidth=2;whiteSpace=wrap;" vertex="1" parent="1">
          <mxGeometry x="1390" y="454" width="191" height="191" as="geometry" />
        </mxCell>
        <mxCell id="c_TrtUdeXuc_WIpKE6Xa-5" value="Workflow Inactive - Do Nothing" style="whiteSpace=wrap;strokeWidth=2;" vertex="1" parent="1">
          <mxGeometry x="1210" y="718" width="260" height="78" as="geometry" />
        </mxCell>
        <mxCell id="c_TrtUdeXuc_WIpKE6Xa-6" value="Workflow Execution Engine" style="rounded=1;arcSize=20;strokeWidth=2" vertex="1" parent="1">
          <mxGeometry x="1520" y="730" width="224" height="54" as="geometry" />
        </mxCell>
        <mxCell id="c_TrtUdeXuc_WIpKE6Xa-7" value="MongoDB - Workflows Collection" style="whiteSpace=wrap;strokeWidth=2;" vertex="1" parent="1">
          <mxGeometry x="679" y="886" width="260" height="78" as="geometry" />
        </mxCell>
        <mxCell id="c_TrtUdeXuc_WIpKE6Xa-8" value="Parse Workflow Graph" style="whiteSpace=wrap;strokeWidth=2;" vertex="1" parent="1">
          <mxGeometry x="1243" y="898" width="218" height="54" as="geometry" />
        </mxCell>
        <mxCell id="c_TrtUdeXuc_WIpKE6Xa-9" value="Node Type?" style="rhombus;strokeWidth=2;whiteSpace=wrap;" vertex="1" parent="1">
          <mxGeometry x="1285" y="1037" width="134" height="134" as="geometry" />
        </mxCell>
        <mxCell id="c_TrtUdeXuc_WIpKE6Xa-10" value="Process Trigger Data" style="whiteSpace=wrap;strokeWidth=2;" vertex="1" parent="1">
          <mxGeometry x="848" y="1313" width="204" height="54" as="geometry" />
        </mxCell>
        <mxCell id="c_TrtUdeXuc_WIpKE6Xa-11" value="Action Service Orchestrator" style="rounded=1;arcSize=20;strokeWidth=2" vertex="1" parent="1">
          <mxGeometry x="1667" y="1313" width="228" height="54" as="geometry" />
        </mxCell>
        <mxCell id="c_TrtUdeXuc_WIpKE6Xa-12" value="External Integrations / DB" style="whiteSpace=wrap;strokeWidth=2;" vertex="1" parent="1">
          <mxGeometry x="402" y="1540" width="247" height="54" as="geometry" />
        </mxCell>
        <mxCell id="c_TrtUdeXuc_WIpKE6Xa-13" value="Email Service" style="rounded=1;arcSize=20;strokeWidth=2" vertex="1" parent="1">
          <mxGeometry x="20" y="1690" width="126" height="54" as="geometry" />
        </mxCell>
        <mxCell id="c_TrtUdeXuc_WIpKE6Xa-14" value="Twilio SMS" style="rounded=1;arcSize=20;strokeWidth=2" vertex="1" parent="1">
          <mxGeometry x="196" y="1690" width="103" height="54" as="geometry" />
        </mxCell>
        <mxCell id="c_TrtUdeXuc_WIpKE6Xa-15" value="Google Sheets API" style="rounded=1;arcSize=20;strokeWidth=2" vertex="1" parent="1">
          <mxGeometry x="349" y="1690" width="158" height="54" as="geometry" />
        </mxCell>
        <mxCell id="c_TrtUdeXuc_WIpKE6Xa-16" value="PDF Generator" style="rounded=1;arcSize=20;strokeWidth=2" vertex="1" parent="1">
          <mxGeometry x="557" y="1690" width="135" height="54" as="geometry" />
        </mxCell>
        <mxCell id="c_TrtUdeXuc_WIpKE6Xa-17" value="Slack/Discord Webhook" style="rounded=1;arcSize=20;strokeWidth=2" vertex="1" parent="1">
          <mxGeometry x="742" y="1690" width="197" height="54" as="geometry" />
        </mxCell>
        <mxCell id="c_TrtUdeXuc_WIpKE6Xa-18" value="MongoDB/PostgreSQL" style="rounded=1;arcSize=20;strokeWidth=2" vertex="1" parent="1">
          <mxGeometry x="989" y="1690" width="182" height="54" as="geometry" />
        </mxCell>
        <mxCell id="c_TrtUdeXuc_WIpKE6Xa-19" value="Logging Service" style="rounded=1;arcSize=20;strokeWidth=2" vertex="1" parent="1">
          <mxGeometry x="2167" y="1540" width="141" height="54" as="geometry" />
        </mxCell>
        <mxCell id="c_TrtUdeXuc_WIpKE6Xa-20" value="Evaluate Condition?" style="rhombus;strokeWidth=2;whiteSpace=wrap;" vertex="1" parent="1">
          <mxGeometry x="1396" y="1243" width="195" height="195" as="geometry" />
        </mxCell>
        <mxCell id="c_TrtUdeXuc_WIpKE6Xa-21" value="Execute True Branch" style="whiteSpace=wrap;strokeWidth=2;" vertex="1" parent="1">
          <mxGeometry x="1462" y="1540" width="207" height="54" as="geometry" />
        </mxCell>
        <mxCell id="c_TrtUdeXuc_WIpKE6Xa-22" value="Execute False Branch" style="whiteSpace=wrap;strokeWidth=2;" vertex="1" parent="1">
          <mxGeometry x="1782" y="1540" width="213" height="54" as="geometry" />
        </mxCell>
        <mxCell id="c_TrtUdeXuc_WIpKE6Xa-23" value="Add Job to Queue" style="rounded=1;arcSize=20;strokeWidth=2" vertex="1" parent="1">
          <mxGeometry x="1160" y="1313" width="158" height="54" as="geometry" />
        </mxCell>
        <mxCell id="c_TrtUdeXuc_WIpKE6Xa-24" value="Job Queue &amp;ﬂ°°40¶ße.g., Redis / BullMQ&amp;ﬂ°°41¶ß" style="whiteSpace=wrap;strokeWidth=2;" vertex="1" parent="1">
          <mxGeometry x="1109" y="1528" width="260" height="78" as="geometry" />
        </mxCell>
        <mxCell id="c_TrtUdeXuc_WIpKE6Xa-25" value="Resume Workflow Execution" style="rounded=1;arcSize=20;strokeWidth=2" vertex="1" parent="1">
          <mxGeometry x="1529" y="1678" width="230" height="78" as="geometry" />
        </mxCell>
        <mxCell id="c_TrtUdeXuc_WIpKE6Xa-26" value="MongoDB - Workflow_Runs Collection" style="whiteSpace=wrap;strokeWidth=2;" vertex="1" parent="1">
          <mxGeometry x="2108" y="1678" width="260" height="78" as="geometry" />
        </mxCell>
        <mxCell id="c_TrtUdeXuc_WIpKE6Xa-27" value="Logs &amp; Replay UI" style="rounded=1;arcSize=20;strokeWidth=2" vertex="1" parent="1">
          <mxGeometry x="2245" y="1829" width="149" height="54" as="geometry" />
        </mxCell>
        <mxCell id="c_TrtUdeXuc_WIpKE6Xa-28" value="End" style="whiteSpace=wrap;strokeWidth=2;" vertex="1" parent="1">
          <mxGeometry x="1028" y="898" width="86" height="54" as="geometry" />
        </mxCell>
        <mxCell id="c_TrtUdeXuc_WIpKE6Xa-29" value="Initiates" style="curved=1;startArrow=none;endArrow=block;exitX=0.5;exitY=1;entryX=0.5;entryY=0.01;rounded=0;" edge="1" parent="1" source="c_TrtUdeXuc_WIpKE6Xa-2" target="c_TrtUdeXuc_WIpKE6Xa-3">
          <mxGeometry relative="1" as="geometry">
            <Array as="points" />
          </mxGeometry>
        </mxCell>
        <mxCell id="c_TrtUdeXuc_WIpKE6Xa-30" value="Webhook / Cron Job / DB Change" style="curved=1;startArrow=none;endArrow=block;exitX=0.5;exitY=1.01;entryX=0.5;entryY=0;rounded=0;" edge="1" parent="1" source="c_TrtUdeXuc_WIpKE6Xa-3" target="c_TrtUdeXuc_WIpKE6Xa-4">
          <mxGeometry relative="1" as="geometry">
            <Array as="points" />
          </mxGeometry>
        </mxCell>
        <mxCell id="c_TrtUdeXuc_WIpKE6Xa-31" value="No" style="curved=1;startArrow=none;endArrow=block;exitX=0;exitY=0.96;entryX=0.5;entryY=0;rounded=0;" edge="1" parent="1" source="c_TrtUdeXuc_WIpKE6Xa-4" target="c_TrtUdeXuc_WIpKE6Xa-5">
          <mxGeometry relative="1" as="geometry">
            <Array as="points">
              <mxPoint x="1340" y="682" />
            </Array>
          </mxGeometry>
        </mxCell>
        <mxCell id="c_TrtUdeXuc_WIpKE6Xa-32" value="Yes" style="curved=1;startArrow=none;endArrow=block;exitX=1;exitY=0.96;entryX=0.5;entryY=0;rounded=0;" edge="1" parent="1" source="c_TrtUdeXuc_WIpKE6Xa-4" target="c_TrtUdeXuc_WIpKE6Xa-6">
          <mxGeometry relative="1" as="geometry">
            <Array as="points">
              <mxPoint x="1632" y="682" />
            </Array>
          </mxGeometry>
        </mxCell>
        <mxCell id="c_TrtUdeXuc_WIpKE6Xa-33" value="Fetches Workflow Definition" style="curved=1;startArrow=none;endArrow=block;exitX=0;exitY=0.71;entryX=0.5;entryY=0;rounded=0;" edge="1" parent="1" source="c_TrtUdeXuc_WIpKE6Xa-6" target="c_TrtUdeXuc_WIpKE6Xa-7">
          <mxGeometry relative="1" as="geometry">
            <Array as="points">
              <mxPoint x="809" y="841" />
            </Array>
          </mxGeometry>
        </mxCell>
        <mxCell id="c_TrtUdeXuc_WIpKE6Xa-34" value="Start Execution" style="curved=1;startArrow=none;endArrow=block;exitX=0.1;exitY=1;entryX=0.5;entryY=0;rounded=0;" edge="1" parent="1" source="c_TrtUdeXuc_WIpKE6Xa-6" target="c_TrtUdeXuc_WIpKE6Xa-8">
          <mxGeometry relative="1" as="geometry">
            <Array as="points">
              <mxPoint x="1352" y="841" />
            </Array>
          </mxGeometry>
        </mxCell>
        <mxCell id="c_TrtUdeXuc_WIpKE6Xa-35" value="Step by Step" style="curved=1;startArrow=none;endArrow=block;exitX=0.5;exitY=1;entryX=0.5;entryY=0;rounded=0;" edge="1" parent="1" source="c_TrtUdeXuc_WIpKE6Xa-8" target="c_TrtUdeXuc_WIpKE6Xa-9">
          <mxGeometry relative="1" as="geometry">
            <Array as="points" />
          </mxGeometry>
        </mxCell>
        <mxCell id="c_TrtUdeXuc_WIpKE6Xa-36" value="Trigger" style="curved=1;startArrow=none;endArrow=block;exitX=0;exitY=0.62;entryX=0.48;entryY=0;rounded=0;" edge="1" parent="1" source="c_TrtUdeXuc_WIpKE6Xa-9" target="c_TrtUdeXuc_WIpKE6Xa-10">
          <mxGeometry relative="1" as="geometry">
            <Array as="points">
              <mxPoint x="927" y="1207" />
            </Array>
          </mxGeometry>
        </mxCell>
        <mxCell id="c_TrtUdeXuc_WIpKE6Xa-37" value="Next Step" style="curved=1;startArrow=none;endArrow=block;exitX=0.52;exitY=0;entryX=0;entryY=0.77;rounded=0;" edge="1" parent="1" source="c_TrtUdeXuc_WIpKE6Xa-10" target="c_TrtUdeXuc_WIpKE6Xa-6">
          <mxGeometry relative="1" as="geometry">
            <Array as="points">
              <mxPoint x="974" y="1207" />
              <mxPoint x="974" y="841" />
            </Array>
          </mxGeometry>
        </mxCell>
        <mxCell id="c_TrtUdeXuc_WIpKE6Xa-38" value="Action" style="curved=1;startArrow=none;endArrow=block;exitX=1;exitY=0.63;entryX=0.45;entryY=0;rounded=0;" edge="1" parent="1" source="c_TrtUdeXuc_WIpKE6Xa-9" target="c_TrtUdeXuc_WIpKE6Xa-11">
          <mxGeometry relative="1" as="geometry">
            <Array as="points">
              <mxPoint x="1729" y="1207" />
            </Array>
          </mxGeometry>
        </mxCell>
        <mxCell id="c_TrtUdeXuc_WIpKE6Xa-39" value="Calls Specific Action Handler" style="curved=1;startArrow=none;endArrow=block;exitX=0;exitY=0.74;entryX=0.5;entryY=0;rounded=0;" edge="1" parent="1" source="c_TrtUdeXuc_WIpKE6Xa-11" target="c_TrtUdeXuc_WIpKE6Xa-12">
          <mxGeometry relative="1" as="geometry">
            <Array as="points">
              <mxPoint x="526" y="1483" />
            </Array>
          </mxGeometry>
        </mxCell>
        <mxCell id="c_TrtUdeXuc_WIpKE6Xa-40" value="" style="curved=1;startArrow=none;endArrow=block;exitX=0;exitY=0.88;entryX=0.5;entryY=0;rounded=0;" edge="1" parent="1" source="c_TrtUdeXuc_WIpKE6Xa-12" target="c_TrtUdeXuc_WIpKE6Xa-13">
          <mxGeometry relative="1" as="geometry">
            <Array as="points">
              <mxPoint x="83" y="1642" />
            </Array>
          </mxGeometry>
        </mxCell>
        <mxCell id="c_TrtUdeXuc_WIpKE6Xa-41" value="" style="curved=1;startArrow=none;endArrow=block;exitX=0.1;exitY=1;entryX=0.5;entryY=0;rounded=0;" edge="1" parent="1" source="c_TrtUdeXuc_WIpKE6Xa-12" target="c_TrtUdeXuc_WIpKE6Xa-14">
          <mxGeometry relative="1" as="geometry">
            <Array as="points">
              <mxPoint x="248" y="1642" />
            </Array>
          </mxGeometry>
        </mxCell>
        <mxCell id="c_TrtUdeXuc_WIpKE6Xa-42" value="" style="curved=1;startArrow=none;endArrow=block;exitX=0.36;exitY=1;entryX=0.5;entryY=0;rounded=0;" edge="1" parent="1" source="c_TrtUdeXuc_WIpKE6Xa-12" target="c_TrtUdeXuc_WIpKE6Xa-15">
          <mxGeometry relative="1" as="geometry">
            <Array as="points">
              <mxPoint x="428" y="1642" />
            </Array>
          </mxGeometry>
        </mxCell>
        <mxCell id="c_TrtUdeXuc_WIpKE6Xa-43" value="" style="curved=1;startArrow=none;endArrow=block;exitX=0.64;exitY=1;entryX=0.5;entryY=0;rounded=0;" edge="1" parent="1" source="c_TrtUdeXuc_WIpKE6Xa-12" target="c_TrtUdeXuc_WIpKE6Xa-16">
          <mxGeometry relative="1" as="geometry">
            <Array as="points">
              <mxPoint x="624" y="1642" />
            </Array>
          </mxGeometry>
        </mxCell>
        <mxCell id="c_TrtUdeXuc_WIpKE6Xa-44" value="" style="curved=1;startArrow=none;endArrow=block;exitX=0.96;exitY=1;entryX=0.5;entryY=0;rounded=0;" edge="1" parent="1" source="c_TrtUdeXuc_WIpKE6Xa-12" target="c_TrtUdeXuc_WIpKE6Xa-17">
          <mxGeometry relative="1" as="geometry">
            <Array as="points">
              <mxPoint x="840" y="1642" />
            </Array>
          </mxGeometry>
        </mxCell>
        <mxCell id="c_TrtUdeXuc_WIpKE6Xa-45" value="" style="curved=1;startArrow=none;endArrow=block;exitX=1;exitY=0.81;entryX=0.5;entryY=0;rounded=0;" edge="1" parent="1" source="c_TrtUdeXuc_WIpKE6Xa-12" target="c_TrtUdeXuc_WIpKE6Xa-18">
          <mxGeometry relative="1" as="geometry">
            <Array as="points">
              <mxPoint x="1079" y="1642" />
            </Array>
          </mxGeometry>
        </mxCell>
        <mxCell id="c_TrtUdeXuc_WIpKE6Xa-46" value="Action Result (Success/Fail)" style="curved=1;startArrow=none;endArrow=block;exitX=0.88;exitY=1;entryX=0.5;entryY=0;rounded=0;" edge="1" parent="1" source="c_TrtUdeXuc_WIpKE6Xa-11" target="c_TrtUdeXuc_WIpKE6Xa-19">
          <mxGeometry relative="1" as="geometry">
            <Array as="points">
              <mxPoint x="2238" y="1483" />
            </Array>
          </mxGeometry>
        </mxCell>
        <mxCell id="c_TrtUdeXuc_WIpKE6Xa-47" value="Next Step / Error" style="curved=1;startArrow=none;endArrow=block;exitX=0.53;exitY=0;entryX=0.76;entryY=1;rounded=0;" edge="1" parent="1" source="c_TrtUdeXuc_WIpKE6Xa-11" target="c_TrtUdeXuc_WIpKE6Xa-6">
          <mxGeometry relative="1" as="geometry">
            <Array as="points">
              <mxPoint x="1813" y="1207" />
              <mxPoint x="1813" y="841" />
            </Array>
          </mxGeometry>
        </mxCell>
        <mxCell id="c_TrtUdeXuc_WIpKE6Xa-48" value="Condition" style="curved=1;startArrow=none;endArrow=block;exitX=1;exitY=0.86;entryX=0.5;entryY=0;rounded=0;" edge="1" parent="1" source="c_TrtUdeXuc_WIpKE6Xa-9" target="c_TrtUdeXuc_WIpKE6Xa-20">
          <mxGeometry relative="1" as="geometry">
            <Array as="points">
              <mxPoint x="1494" y="1207" />
            </Array>
          </mxGeometry>
        </mxCell>
        <mxCell id="c_TrtUdeXuc_WIpKE6Xa-49" value="True" style="curved=1;startArrow=none;endArrow=block;exitX=0.5;exitY=1;entryX=0.39;entryY=0;rounded=0;" edge="1" parent="1" source="c_TrtUdeXuc_WIpKE6Xa-20" target="c_TrtUdeXuc_WIpKE6Xa-21">
          <mxGeometry relative="1" as="geometry">
            <Array as="points">
              <mxPoint x="1494" y="1483" />
            </Array>
          </mxGeometry>
        </mxCell>
        <mxCell id="c_TrtUdeXuc_WIpKE6Xa-50" value="False" style="curved=1;startArrow=none;endArrow=block;exitX=1;exitY=0.77;entryX=0.3;entryY=0;rounded=0;" edge="1" parent="1" source="c_TrtUdeXuc_WIpKE6Xa-20" target="c_TrtUdeXuc_WIpKE6Xa-22">
          <mxGeometry relative="1" as="geometry">
            <Array as="points">
              <mxPoint x="1759" y="1483" />
            </Array>
          </mxGeometry>
        </mxCell>
        <mxCell id="c_TrtUdeXuc_WIpKE6Xa-51" value="Next Step" style="curved=1;startArrow=none;endArrow=block;exitX=0.6;exitY=0;entryX=0.5;entryY=1;rounded=0;" edge="1" parent="1" source="c_TrtUdeXuc_WIpKE6Xa-21" target="c_TrtUdeXuc_WIpKE6Xa-6">
          <mxGeometry relative="1" as="geometry">
            <Array as="points">
              <mxPoint x="1632" y="1483" />
            </Array>
          </mxGeometry>
        </mxCell>
        <mxCell id="c_TrtUdeXuc_WIpKE6Xa-52" value="Next Step" style="curved=1;startArrow=none;endArrow=block;exitX=0.56;exitY=0;entryX=0.93;entryY=1;rounded=0;" edge="1" parent="1" source="c_TrtUdeXuc_WIpKE6Xa-22" target="c_TrtUdeXuc_WIpKE6Xa-6">
          <mxGeometry relative="1" as="geometry">
            <Array as="points">
              <mxPoint x="1930" y="1483" />
              <mxPoint x="1930" y="841" />
            </Array>
          </mxGeometry>
        </mxCell>
        <mxCell id="c_TrtUdeXuc_WIpKE6Xa-53" value="Delay" style="curved=1;startArrow=none;endArrow=block;exitX=0;exitY=0.95;entryX=0.5;entryY=0;rounded=0;" edge="1" parent="1" source="c_TrtUdeXuc_WIpKE6Xa-9" target="c_TrtUdeXuc_WIpKE6Xa-23">
          <mxGeometry relative="1" as="geometry">
            <Array as="points">
              <mxPoint x="1239" y="1207" />
            </Array>
          </mxGeometry>
        </mxCell>
        <mxCell id="c_TrtUdeXuc_WIpKE6Xa-54" value="Queue Job" style="curved=1;startArrow=none;endArrow=block;exitX=0.5;exitY=1;entryX=0.5;entryY=0;rounded=0;" edge="1" parent="1" source="c_TrtUdeXuc_WIpKE6Xa-23" target="c_TrtUdeXuc_WIpKE6Xa-24">
          <mxGeometry relative="1" as="geometry">
            <Array as="points" />
          </mxGeometry>
        </mxCell>
        <mxCell id="c_TrtUdeXuc_WIpKE6Xa-55" value="After Delay" style="curved=1;startArrow=none;endArrow=block;exitX=0.5;exitY=1;entryX=0;entryY=0.23;rounded=0;" edge="1" parent="1" source="c_TrtUdeXuc_WIpKE6Xa-24" target="c_TrtUdeXuc_WIpKE6Xa-25">
          <mxGeometry relative="1" as="geometry">
            <Array as="points">
              <mxPoint x="1239" y="1642" />
            </Array>
          </mxGeometry>
        </mxCell>
        <mxCell id="c_TrtUdeXuc_WIpKE6Xa-56" value="Resume" style="curved=1;startArrow=none;endArrow=block;exitX=1;exitY=0.21;entryX=1;entryY=0.94;rounded=0;" edge="1" parent="1" source="c_TrtUdeXuc_WIpKE6Xa-25" target="c_TrtUdeXuc_WIpKE6Xa-6">
          <mxGeometry relative="1" as="geometry">
            <Array as="points">
              <mxPoint x="2029" y="1642" />
              <mxPoint x="2029" y="841" />
            </Array>
          </mxGeometry>
        </mxCell>
        <mxCell id="c_TrtUdeXuc_WIpKE6Xa-57" value="Stores Log Entry" style="curved=1;startArrow=none;endArrow=block;exitX=0.5;exitY=1;entryX=0.5;entryY=0;rounded=0;" edge="1" parent="1" source="c_TrtUdeXuc_WIpKE6Xa-19" target="c_TrtUdeXuc_WIpKE6Xa-26">
          <mxGeometry relative="1" as="geometry">
            <Array as="points" />
          </mxGeometry>
        </mxCell>
        <mxCell id="c_TrtUdeXuc_WIpKE6Xa-58" value="Logs Accessible Via" style="curved=1;startArrow=none;endArrow=block;exitX=0.5;exitY=1;entryX=0.27;entryY=-0.01;rounded=0;" edge="1" parent="1" source="c_TrtUdeXuc_WIpKE6Xa-26" target="c_TrtUdeXuc_WIpKE6Xa-27">
          <mxGeometry relative="1" as="geometry">
            <Array as="points">
              <mxPoint x="2238" y="1792" />
            </Array>
          </mxGeometry>
        </mxCell>
        <mxCell id="c_TrtUdeXuc_WIpKE6Xa-59" value="Replay Failed" style="curved=1;startArrow=none;endArrow=block;exitX=0.74;exitY=-0.01;entryX=1;entryY=0.73;rounded=0;" edge="1" parent="1" source="c_TrtUdeXuc_WIpKE6Xa-27" target="c_TrtUdeXuc_WIpKE6Xa-6">
          <mxGeometry relative="1" as="geometry">
            <Array as="points">
              <mxPoint x="2403" y="1792" />
              <mxPoint x="2403" y="841" />
            </Array>
          </mxGeometry>
        </mxCell>
        <mxCell id="c_TrtUdeXuc_WIpKE6Xa-60" value="Workflow Completed" style="curved=1;startArrow=none;endArrow=block;exitX=0;exitY=0.81;entryX=0.5;entryY=0;rounded=0;" edge="1" parent="1" source="c_TrtUdeXuc_WIpKE6Xa-6" target="c_TrtUdeXuc_WIpKE6Xa-28">
          <mxGeometry relative="1" as="geometry">
            <Array as="points">
              <mxPoint x="1071" y="841" />
            </Array>
          </mxGeometry>
        </mxCell>
      </root>
    </mxGraphModel>
  </diagram>
</mxfile>
